<?xml version="1.0" standalone="no"?>
<!DOCTYPE svg PUBLIC "-//W3C//DTD SVG 20010904//EN"
 "http://www.w3.org/TR/2001/REC-SVG-20010904/DTD/svg10.dtd">
<svg version="1.0" xmlns="http://www.w3.org/2000/svg"
 width="260.000000pt" height="260.000000pt" viewBox="0 0 260.000000 260.000000"
 preserveAspectRatio="xMidYMid meet">
<metadata>
Created by potrace 1.11, written by Peter Selinger 2001-2013
</metadata>
<g transform="translate(0.000000,260.000000) scale(0.100000,-0.100000)"
fill="#000000" stroke="none">
<path d="M929 2236 c-2 -2 -60 -5 -129 -7 -133 -2 -173 -7 -165 -18 2 -4 -2
-8 -10 -8 -8 0 -15 4 -15 8 0 4 -8 10 -17 14 -15 5 -16 4 -5 -6 6 -7 12 -17
12 -23 0 -5 -3 -7 -6 -3 -3 3 -26 -6 -51 -19 -24 -14 -59 -26 -76 -26 -18 -1
-26 -3 -19 -6 23 -7 -8 -32 -33 -26 -17 4 -24 0 -28 -17 -4 -13 -11 -20 -20
-16 -8 3 -20 0 -26 -6 -8 -8 -11 -7 -11 3 0 7 -3 11 -6 7 -3 -3 -3 -11 1 -17
5 -8 11 -8 21 1 8 7 14 7 14 1 0 -15 -26 -33 -35 -24 -5 4 -5 2 -2 -4 10 -17
-15 -33 -45 -30 -15 2 -25 -1 -22 -6 3 -5 12 -7 20 -4 24 9 23 -10 -2 -37 -14
-15 -22 -31 -19 -36 3 -5 1 -12 -5 -16 -6 -4 -8 -10 -5 -15 3 -5 1 -11 -5 -15
-5 -3 -10 -17 -10 -31 0 -13 -4 -24 -8 -24 -5 0 -7 -28 -5 -62 5 -84 14 -138
23 -138 4 0 7 -13 8 -29 0 -16 8 -41 18 -56 9 -14 13 -25 8 -24 -24 4 -36 -4
-14 -10 14 -4 27 -16 29 -26 2 -11 11 -26 20 -33 12 -10 12 -12 1 -7 -12 5
-12 4 1 -7 10 -8 15 -25 13 -43 -2 -21 -1 -25 4 -11 7 15 15 8 50 -45 30 -47
38 -66 30 -76 -8 -9 -7 -13 2 -13 9 0 9 -4 -1 -17 -13 -16 -12 -17 4 -4 13 11
17 11 17 1 0 -8 3 -10 6 -7 4 4 2 13 -4 20 -7 8 -9 17 -5 20 3 4 17 -9 30 -28
13 -19 33 -45 46 -58 20 -21 71 -81 98 -115 5 -7 7 -17 4 -22 -3 -6 2 -10 12
-10 15 0 16 -2 3 -11 -12 -9 -11 -10 6 -6 17 3 20 0 17 -13 -3 -10 1 -21 8
-26 9 -5 10 -2 5 12 -4 10 14 -2 39 -28 25 -27 50 -48 55 -48 6 0 10 -6 10
-14 0 -8 16 -24 34 -36 22 -13 33 -26 29 -36 -3 -7 0 -15 6 -15 23 -3 27 -5
59 -29 17 -13 32 -28 32 -33 0 -5 -7 -4 -15 3 -9 7 -18 10 -22 6 -3 -3 -1 -6
6 -6 7 0 11 -6 8 -13 -3 -8 4 -13 22 -14 14 0 32 -1 39 -2 7 0 12 -15 12 -34
0 -32 2 -34 35 -32 25 0 34 -3 31 -12 -3 -7 -1 -13 4 -13 6 0 12 0 15 0 10 0
50 -45 47 -54 -2 -5 4 -6 12 -3 15 6 40 -16 30 -26 -4 -3 -4 -14 0 -23 5 -13
9 -14 20 -5 11 9 17 8 28 -7 7 -11 17 -20 23 -20 5 0 11 -6 14 -13 2 -6 -1 -9
-6 -6 -5 3 -9 -5 -9 -19 0 -31 4 -30 16 2 9 23 30 26 30 3 0 -6 -4 -8 -8 -5
-5 3 -9 -1 -9 -9 0 -8 4 -12 9 -9 13 9 58 -5 58 -17 0 -6 -4 -7 -10 -4 -5 3
-10 1 -10 -5 0 -7 7 -9 16 -6 8 3 25 -3 37 -15 19 -18 20 -19 3 -13 -14 5 -17
4 -12 -5 5 -7 15 -10 23 -6 9 3 27 -2 40 -10 20 -13 22 -19 12 -31 -10 -12
-10 -17 0 -27 10 -9 11 -8 6 6 -4 10 -2 17 4 17 6 0 11 -5 11 -11 0 -5 5 -7
10 -4 6 3 10 1 10 -6 0 -7 3 -9 7 -6 8 9 33 -12 33 -27 0 -6 -5 -4 -10 4 -7
12 -9 10 -7 -8 1 -25 2 -25 26 -13 10 6 23 6 32 0 12 -8 12 -10 -1 -19 -12 -7
-8 -10 15 -9 17 0 24 3 17 6 -10 4 -10 8 -1 19 6 8 16 11 22 7 6 -3 7 -1 3 6
-4 6 0 14 8 17 11 4 16 19 16 46 0 35 -2 39 -15 28 -12 -10 -16 -8 -24 11 -5
13 -6 28 -4 33 3 4 -4 5 -15 2 -12 -4 -23 -2 -28 5 -4 8 -3 9 4 5 8 -5 10 -2
6 9 -5 13 -9 13 -22 3 -12 -10 -14 -10 -8 0 4 7 1 12 -9 12 -9 0 -24 7 -33 16
-18 18 -26 48 -11 38 5 -3 6 -11 3 -17 -4 -8 -2 -7 7 1 12 11 12 14 -1 22 -10
7 -18 5 -26 -5 -9 -12 -13 -11 -26 4 -22 26 -11 77 22 101 32 23 41 25 38 9
-2 -6 8 -15 21 -20 l25 -10 -20 22 c-10 12 -14 20 -8 16 6 -3 21 5 34 18 13
13 26 22 31 20 4 -3 10 -1 14 5 3 5 2 10 -3 10 -10 0 -4 59 8 75 4 6 10 23 14
38 4 15 11 25 16 22 5 -3 7 3 5 12 -1 10 6 29 16 42 10 13 19 19 19 13 0 -6
-7 -18 -16 -26 -8 -9 -12 -16 -8 -16 4 0 17 11 29 24 18 20 20 26 8 30 -8 3
-11 11 -8 17 4 6 13 8 21 5 7 -3 16 0 20 6 4 6 3 8 -4 4 -18 -11 -23 11 -7 27
8 9 15 21 15 27 0 6 5 8 10 5 6 -4 8 -10 5 -15 -3 -5 0 -12 6 -16 9 -5 10 1 5
20 -9 35 1 51 22 34 13 -12 14 -10 4 9 -15 28 -15 33 3 33 9 0 12 6 9 15 -4 9
1 18 11 21 9 4 14 12 11 19 -5 14 20 29 33 20 5 -2 6 7 3 20 -4 26 -2 27 55
28 12 0 20 4 17 9 -3 4 -9 6 -14 3 -12 -8 -41 6 -34 16 3 5 9 7 14 4 6 -4 17
16 24 46 1 5 19 29 71 94 9 11 14 14 10 8 -3 -7 -1 -13 5 -13 6 0 10 8 8 18
-4 23 10 42 26 36 8 -3 17 0 22 7 5 8 3 10 -7 4 -12 -8 -12 -6 -1 8 8 9 11 20
8 25 -2 4 5 21 18 36 l22 29 29 -19 c22 -14 27 -15 23 -4 -3 8 -11 14 -17 13
-6 -2 -11 4 -11 13 0 8 -5 12 -11 9 -6 -4 -5 2 3 14 7 12 16 21 20 21 5 0 8 7
8 16 0 8 5 12 10 9 6 -3 10 1 10 9 0 9 8 16 18 16 14 0 15 2 2 10 -13 8 -12
10 3 10 9 0 17 -5 17 -12 0 -6 3 -8 6 -5 4 4 1 14 -7 24 -12 15 -12 16 3 11
12 -5 16 -1 14 17 -2 15 1 22 9 18 7 -2 16 0 20 6 3 6 0 11 -7 11 -7 1 -2 7
12 15 14 8 21 14 16 15 -5 0 -2 8 5 17 12 14 12 16 0 8 -10 -6 -12 -4 -7 4 5
7 14 10 22 7 12 -5 20 24 15 57 0 4 9 7 22 8 12 0 17 3 11 5 -13 5 11 64 25
64 10 0 8 171 -2 188 -5 6 -5 17 -2 22 3 6 1 10 -4 10 -6 0 -11 5 -11 10 0 6
7 10 16 10 8 0 12 5 9 10 -5 8 -11 8 -20 0 -9 -8 -15 -8 -20 0 -3 6 -10 8 -15
5 -5 -3 -12 0 -16 6 -4 8 -3 9 4 5 7 -4 12 -2 12 3 0 6 -9 11 -21 11 -13 0
-18 4 -13 12 4 6 3 8 -3 5 -13 -8 -62 16 -74 35 -7 11 -9 11 -9 0 0 -7 -5 -10
-10 -7 -6 4 -8 11 -5 16 7 11 -8 12 -19 2 -13 -13 -67 -11 -73 3 -3 9 -12 10
-26 5 -12 -5 -29 -6 -37 -4 -13 4 -13 3 0 -6 13 -10 13 -11 0 -12 -8 0 -37 -3
-65 -6 -27 -2 -58 -5 -67 -6 -10 -1 -18 -7 -18 -14 0 -7 -11 -13 -24 -13 -14
0 -31 -7 -40 -15 -8 -8 -24 -15 -35 -15 -12 0 -21 -4 -21 -9 0 -5 -9 -11 -20
-14 -12 -3 -18 -1 -14 5 4 6 1 8 -7 6 -8 -3 -13 -10 -12 -16 2 -6 -6 -14 -17
-17 -11 -4 -20 -11 -20 -16 0 -6 -9 -5 -21 2 -12 6 -19 7 -15 1 3 -5 -3 -17
-14 -27 -11 -10 -20 -14 -20 -9 0 5 -5 1 -11 -8 -5 -10 -17 -18 -24 -18 -8 0
-15 -5 -15 -11 0 -6 -7 -9 -15 -6 -8 4 -17 1 -21 -5 -5 -7 -2 -8 7 -4 8 4 3
-2 -11 -13 -14 -11 -30 -21 -37 -21 -7 0 -16 -7 -21 -16 -8 -14 -12 -12 -31
14 -20 28 -20 32 -5 47 12 12 19 13 24 5 5 -9 9 -9 14 -1 4 6 4 11 -1 12 -4 0
-18 2 -30 3 -12 1 -20 -1 -17 -5 2 -4 0 -10 -6 -14 -5 -3 -10 1 -10 9 0 10 -6
13 -15 10 -9 -4 -15 0 -15 9 0 8 -19 22 -42 32 -23 9 -48 25 -56 36 -7 11 -17
17 -21 15 -11 -7 -51 40 -43 50 4 4 2 4 -4 1 -6 -3 -24 1 -40 10 -32 17 -75
31 -114 39 -46 9 -60 15 -55 25 6 9 2 13 -6 5z m1104 -33 c-7 -2 -19 -2 -25 0
-7 3 -2 5 12 5 14 0 19 -2 13 -5z m-1013 -147 c36 -9 71 -17 78 -18 6 -1 12
-5 12 -9 0 -4 11 -10 25 -13 14 -4 23 -10 21 -15 -3 -5 2 -15 12 -24 9 -9 26
-36 37 -61 11 -25 26 -46 33 -46 6 0 12 -4 12 -8 0 -4 23 -16 50 -26 28 -10
49 -21 46 -23 -3 -3 -19 0 -37 6 -19 6 -37 7 -47 2 -13 -7 -11 -9 8 -9 14 0
42 -3 63 -7 25 -5 37 -4 37 4 0 6 5 11 11 11 5 0 7 -4 4 -10 -3 -5 -2 -10 4
-10 5 0 12 6 14 13 4 7 6 6 6 -4 1 -9 8 -20 17 -23 8 -3 13 -10 10 -15 -10
-16 68 -42 119 -39 40 2 49 7 51 24 4 26 29 75 36 69 2 -3 17 8 32 24 18 18
34 27 44 24 10 -4 13 -2 8 5 -9 15 37 44 57 37 8 -4 18 -1 23 6 5 8 3 10 -7 4
-12 -8 -12 -6 0 8 8 10 16 15 19 13 3 -3 17 3 32 14 32 23 55 26 44 8 -4 -7 3
-3 15 10 23 23 37 29 25 11 -4 -7 -2 -10 5 -8 7 3 12 8 11 13 -3 14 21 24 46
21 13 -1 24 2 24 8 0 5 6 5 14 -2 10 -9 15 -8 20 4 3 8 12 15 21 15 18 0 21
-20 3 -21 -10 0 -10 -2 0 -6 6 -2 12 -9 12 -14 0 -6 -4 -7 -10 -4 -5 3 -10 -3
-10 -14 0 -11 -5 -23 -11 -26 -6 -4 -8 -13 -5 -21 3 -8 1 -14 -4 -14 -6 0 -9
-3 -8 -7 4 -17 -26 -62 -48 -74 -13 -7 -22 -14 -19 -17 2 -3 13 1 22 9 10 7 8
2 -5 -12 -12 -14 -19 -28 -16 -32 11 -11 -18 -38 -34 -32 -11 4 -12 2 -5 -7
10 -13 0 -58 -12 -58 -4 0 -3 5 0 10 3 6 4 10 1 10 -3 0 -15 -21 -27 -46 -11
-26 -33 -57 -47 -71 -15 -14 -21 -21 -13 -17 20 10 3 -17 -21 -34 -10 -7 -18
-19 -18 -26 0 -8 -7 -16 -15 -20 -8 -3 -14 -9 -13 -13 5 -17 -24 -54 -37 -49
-9 3 -12 0 -8 -10 4 -10 -5 -25 -23 -41 -16 -13 -23 -22 -16 -18 6 3 12 1 12
-4 0 -6 -7 -11 -16 -11 -8 0 -12 -4 -9 -10 3 -5 2 -10 -3 -10 -5 0 -15 -12
-23 -27 -25 -49 -52 -75 -62 -61 -6 9 -7 5 -4 -10 5 -20 2 -23 -13 -19 -13 3
-17 0 -13 -9 3 -8 0 -14 -5 -14 -6 0 -9 -9 -7 -20 2 -13 -2 -20 -11 -20 -8 0
-12 -5 -9 -10 3 -5 1 -10 -5 -10 -6 0 -9 -4 -5 -9 3 -6 -4 -15 -15 -21 -11 -6
-20 -17 -20 -24 0 -15 -16 -16 -38 -2 -9 5 -20 2 -30 -10 -14 -15 -14 -16 -1
-6 12 9 20 8 35 -4 18 -15 18 -15 -3 -11 -13 3 -26 0 -30 -5 -3 -6 -1 -8 5 -4
6 3 13 2 17 -4 3 -5 2 -10 -4 -10 -6 0 -9 -6 -7 -12 1 -7 1 -10 -1 -5 -9 14
-25 7 -19 -9 4 -9 -3 -27 -17 -42 -25 -29 -47 -39 -47 -20 0 6 -3 8 -6 5 -4
-4 -1 -13 6 -22 8 -10 9 -15 1 -15 -6 0 -10 -3 -8 -8 1 -4 -8 -18 -20 -31 -14
-15 -21 -33 -18 -45 2 -12 7 -36 9 -55 3 -19 10 -37 16 -41 7 -4 9 -16 6 -28
-7 -22 19 -56 35 -47 5 4 19 -1 31 -9 12 -9 18 -16 13 -16 -5 0 -4 -5 2 -11 9
-9 5 -21 -15 -47 -15 -20 -21 -33 -14 -28 7 4 12 2 12 -4 0 -6 -8 -10 -17 -8
-10 2 -17 9 -16 15 1 6 -13 18 -32 27 -19 10 -35 23 -35 31 0 18 12 19 29 2
10 -10 11 -9 6 6 -4 9 -17 17 -30 17 -13 0 -27 5 -31 12 -5 8 -2 9 9 5 9 -3
19 -2 21 2 3 5 -4 8 -16 7 -26 -1 -36 -24 -14 -32 9 -3 16 -11 16 -17 0 -5 -9
-2 -20 8 -13 12 -18 25 -14 38 4 14 3 17 -6 12 -6 -4 -23 -1 -37 6 -18 10 -23
19 -20 36 4 19 2 21 -16 12 -14 -8 -18 -8 -13 0 4 6 2 11 -4 11 -7 0 -23 9
-37 20 -31 24 -22 27 12 4 14 -9 25 -12 25 -6 0 5 -13 15 -30 22 -16 7 -30 17
-30 22 0 5 5 6 12 2 7 -4 8 -3 4 4 -4 6 -13 9 -21 5 -8 -3 -15 0 -15 7 0 6 -4
9 -9 5 -6 -3 -34 19 -65 48 -48 48 -53 56 -40 69 11 11 12 15 2 16 -38 2 -60
15 -102 59 -29 30 -45 55 -42 66 2 9 0 15 -4 12 -5 -3 -11 -1 -15 5 -4 6 -11
8 -16 5 -5 -4 -9 1 -9 9 0 9 3 15 8 15 19 -3 29 2 29 17 0 14 -2 14 -11 3 -6
-8 -19 -15 -30 -17 -15 -3 -18 1 -13 18 4 16 2 19 -7 11 -8 -7 -15 -4 -24 9
-7 12 -8 21 -2 25 6 3 10 12 10 18 0 9 -2 9 -8 0 -5 -8 -12 -8 -26 3 -11 8
-14 14 -7 14 7 0 9 5 6 11 -4 6 -14 8 -23 4 -9 -3 -13 -3 -9 1 4 4 -3 18 -15
31 -12 13 -16 23 -10 23 7 0 12 -4 12 -10 0 -5 8 -10 18 -10 13 0 14 2 3 9 -7
5 -11 14 -7 19 4 7 -1 9 -14 7 -31 -6 -49 4 -45 25 2 10 -5 27 -15 38 -11 11
-22 32 -26 47 -4 17 -11 24 -21 21 -8 -3 -11 -1 -8 4 3 6 1 10 -6 10 -8 0 -8
4 -1 13 8 9 8 17 0 27 -8 12 -8 11 -3 -5 6 -18 4 -18 -15 3 -12 12 -19 26 -16
31 3 4 -4 17 -15 27 -11 10 -18 23 -15 30 3 7 1 14 -4 16 -5 2 -11 19 -12 40
-2 20 -6 34 -9 32 -12 -7 -3 64 10 80 11 14 11 16 -3 16 -17 0 -21 12 -9 24 5
4 8 11 9 14 1 7 8 27 27 74 9 22 14 25 30 16 13 -7 17 -7 13 0 -3 6 1 17 9 26
9 8 15 19 14 23 -1 4 13 15 30 23 17 9 29 19 26 22 -3 3 14 14 39 24 25 11 46
23 46 27 0 5 5 5 11 1 6 -3 24 3 40 15 17 13 54 25 96 30 79 11 104 9 193 -13z
m-70 -1132 c0 -2 -7 -4 -15 -4 -8 0 -15 4 -15 10 0 5 7 7 15 4 8 -4 15 -8 15
-10z m53 -248 c4 -10 1 -13 -9 -9 -15 6 -19 23 -5 23 5 0 11 -7 14 -14z m350
-7 c4 -16 3 -18 -9 -8 -7 6 -11 15 -8 20 8 13 11 11 17 -12z"/>
<path d="M1930 1966 c0 -2 9 -6 20 -9 11 -3 18 -1 14 4 -5 9 -34 13 -34 5z"/>
<path d="M2005 1929 c-4 -6 -5 -12 -2 -15 2 -3 7 2 10 11 7 17 1 20 -8 4z"/>
<path d="M1750 1900 c-11 -7 -11 -10 -2 -10 8 0 10 -5 6 -12 -5 -10 -4 -10 6
-1 17 16 9 35 -10 23z"/>
<path d="M1400 1753 c1 -18 18 -35 24 -24 4 6 2 11 -4 11 -6 0 -8 5 -5 10 3 6
1 10 -4 10 -6 0 -11 -3 -11 -7z"/>
<path d="M1496 1138 c5 -7 2 -9 -9 -5 -10 4 -14 2 -11 -7 7 -19 30 -15 31 6 1
10 -3 18 -8 18 -6 0 -7 -5 -3 -12z"/>
<path d="M830 1037 c0 -2 13 -15 28 -30 20 -19 29 -23 29 -13 0 8 -4 13 -8 10
-4 -2 -13 5 -19 16 -9 16 -30 28 -30 17z"/>
<path d="M1365 959 c-11 -17 1 -21 15 -4 8 9 8 15 2 15 -6 0 -14 -5 -17 -11z"/>
<path d="M1011 854 c0 -11 3 -14 6 -6 3 7 2 16 -1 19 -3 4 -6 -2 -5 -13z"/>
<path d="M1255 860 c-3 -5 -1 -10 4 -10 6 0 11 5 11 10 0 6 -2 10 -4 10 -3 0
-8 -4 -11 -10z"/>
<path d="M1260 831 c0 -6 4 -13 10 -16 6 -3 7 1 4 9 -7 18 -14 21 -14 7z"/>
<path d="M1278 755 c-2 -19 0 -35 4 -35 4 0 8 16 8 35 0 19 -2 35 -4 35 -2 0
-6 -16 -8 -35z"/>
<path d="M1251 734 c0 -11 3 -14 6 -6 3 7 2 16 -1 19 -3 4 -6 -2 -5 -13z"/>
<path d="M1211 687 c-11 -14 -5 -27 11 -27 5 0 6 5 2 11 -3 6 0 15 7 20 8 5 9
9 3 9 -6 0 -17 -6 -23 -13z"/>
<path d="M1905 2221 c-10 -17 12 -21 25 -6 10 12 10 15 -3 15 -9 0 -18 -4 -22
-9z"/>
<path d="M530 2204 c0 -8 5 -12 10 -9 6 4 8 11 5 16 -9 14 -15 11 -15 -7z"/>
<path d="M1851 2204 c0 -11 3 -14 6 -6 3 7 2 16 -1 19 -3 4 -6 -2 -5 -13z"/>
<path d="M2175 2200 c3 -5 8 -10 11 -10 2 0 4 5 4 10 0 6 -5 10 -11 10 -5 0
-7 -4 -4 -10z"/>
<path d="M1700 2148 c0 -11 22 -10 39 1 10 7 7 9 -12 8 -15 -1 -27 -5 -27 -9z"/>
<path d="M1543 2069 c-1 -12 4 -19 15 -18 11 0 12 2 4 6 -6 2 -10 9 -7 13 3 5
2 11 -3 14 -4 2 -9 -4 -9 -15z"/>
<path d="M1423 1994 c-13 -6 -6 -34 8 -34 4 0 5 7 2 17 -5 12 -3 14 7 8 9 -5
11 -4 6 3 -4 7 -8 12 -9 11 -1 0 -7 -3 -14 -5z"/>
<path d="M1385 1959 c-11 -16 -1 -19 13 -3 7 8 8 14 3 14 -5 0 -13 -5 -16 -11z"/>
<path d="M2306 1834 c-5 -14 -4 -15 9 -4 17 14 19 20 6 20 -5 0 -12 -7 -15
-16z"/>
<path d="M2046 1452 c-3 -5 1 -9 9 -9 8 0 12 4 9 9 -3 4 -7 8 -9 8 -2 0 -6 -4
-9 -8z"/>
<path d="M2156 1348 c-46 -46 -43 -88 9 -135 48 -45 102 -46 139 -2 55 65 15
146 -82 165 -27 6 -37 1 -66 -28z m78 2 c7 0 27 -13 46 -30 30 -27 32 -32 24
-62 -14 -46 -51 -66 -94 -48 -36 15 -71 64 -63 89 10 28 46 62 61 56 7 -3 19
-5 26 -5z"/>
<path d="M337 1364 c-4 -4 3 -15 15 -25 29 -26 35 -24 12 4 -10 12 -19 23 -20
25 0 1 -4 -1 -7 -4z"/>
<path d="M1929 1288 c-7 -13 -19 -28 -27 -34 -8 -6 -12 -17 -9 -25 4 -10 6 -9
6 4 1 9 6 17 11 17 6 0 15 11 22 24 6 14 20 27 32 29 20 4 20 4 -1 6 -14 0
-27 -8 -34 -21z"/>
<path d="M2055 1208 c-8 -8 3 -32 36 -82 26 -40 42 -72 35 -74 -6 -1 -42 6
-81 17 -49 14 -73 17 -82 9 -7 -6 -11 -14 -8 -18 7 -12 131 -99 151 -107 35
-13 7 18 -55 62 -36 25 -63 45 -60 45 2 0 38 -9 79 -20 87 -23 100 -24 100 -9
0 9 -53 97 -84 138 -6 8 20 -6 58 -32 37 -26 73 -44 78 -41 5 4 6 9 1 13 -15
14 -153 111 -155 111 -2 -1 -8 -6 -13 -12z"/>
<path d="M474 1169 c-5 -9 -2 -10 9 -6 9 3 18 2 21 -4 2 -5 3 -4 2 3 -3 17
-23 21 -32 7z"/>
<path d="M547 1093 c11 -10 23 -27 26 -37 4 -10 10 -16 13 -13 10 9 -29 67
-45 67 -10 0 -9 -5 6 -17z"/>
<path d="M1790 1090 c0 -5 5 -10 11 -10 5 0 7 5 4 10 -3 6 -8 10 -11 10 -2 0
-4 -4 -4 -10z"/>
<path d="M1890 975 c-18 -26 -30 -48 -28 -49 23 -21 150 -106 156 -106 5 0 23
20 41 45 21 30 28 45 18 45 -7 0 -25 -15 -38 -34 l-24 -34 -28 24 -28 24 20
26 c23 29 27 44 12 44 -6 0 -18 -13 -28 -30 -20 -35 -21 -35 -51 -10 l-23 19
26 35 c15 20 22 37 16 40 -5 4 -24 -14 -41 -39z"/>
<path d="M715 910 c-3 -5 -1 -10 4 -10 6 0 11 5 11 10 0 6 -2 10 -4 10 -3 0
-8 -4 -11 -10z"/>
<path d="M1830 862 c-23 -7 -51 -34 -71 -66 l-18 -29 77 -54 c42 -29 81 -53
87 -53 14 0 55 74 55 99 0 60 -76 121 -130 103z m70 -42 c36 -25 45 -62 25
-100 -9 -17 -19 -30 -24 -30 -6 0 -111 69 -129 85 -2 1 9 17 23 34 31 36 64
40 105 11z"/>
<path d="M784 841 c0 -11 5 -17 13 -14 10 4 11 9 2 19 -15 18 -15 18 -15 -5z"/>
<path d="M856 787 c3 -10 9 -15 12 -12 3 3 0 11 -7 18 -10 9 -11 8 -5 -6z"/>
<path d="M1580 716 c7 -7 13 -7 20 0 6 6 3 10 -10 10 -13 0 -16 -4 -10 -10z"/>
<path d="M1581 664 c0 -11 3 -14 6 -6 3 7 2 16 -1 19 -3 4 -6 -2 -5 -13z"/>
<path d="M1525 620 c-3 -5 -2 -17 3 -26 8 -14 10 -14 15 5 5 22 -7 38 -18 21z"/>
<path d="M1040 610 c0 -13 18 -22 24 -11 3 5 -1 11 -9 15 -8 3 -15 1 -15 -4z"/>
<path d="M1123 555 c0 -8 4 -12 9 -9 5 3 6 10 3 15 -9 13 -12 11 -12 -6z"/>
<path d="M1601 246 c-9 -11 -9 -16 1 -22 7 -4 10 -4 6 1 -4 4 -3 14 3 22 6 7
9 13 6 13 -2 0 -10 -6 -16 -14z"/>
<path d="M1490 230 c0 -5 5 -10 11 -10 5 0 7 5 4 10 -3 6 -8 10 -11 10 -2 0
-4 -4 -4 -10z"/>
</g>
</svg>
